<mxfile host="Electron" modified="2025-09-25T18:58:37.371Z" agent="Mozilla/5.0 (Windows NT 10.0; Win64; x64) AppleWebKit/537.36 (KHTML, like Gecko) draw.io/22.1.2 Chrome/114.0.5735.289 Electron/25.9.4 Safari/537.36" etag="SpIAJqEpn6Y968Rfp_WV" version="22.1.2" type="device">
  <diagram id="C5RBs43oDa-KdzZeNtuy" name="Page-1">
    <mxGraphModel dx="954" dy="717" grid="1" gridSize="10" guides="1" tooltips="1" connect="1" arrows="1" fold="1" page="1" pageScale="1" pageWidth="827" pageHeight="1169" math="0" shadow="0">
      <root>
        <mxCell id="WIyWlLk6GJQsqaUBKTNV-0" />
        <mxCell id="WIyWlLk6GJQsqaUBKTNV-1" parent="WIyWlLk6GJQsqaUBKTNV-0" />
        <mxCell id="wbKljEE9paM91vU6qUUw-0" value="&lt;font style=&quot;font-size: 16px;&quot;&gt;HTTP Parse Start&lt;/font&gt;" style="rounded=1;whiteSpace=wrap;html=1;absoluteArcSize=1;arcSize=14;strokeWidth=2;" vertex="1" parent="WIyWlLk6GJQsqaUBKTNV-1">
          <mxGeometry x="64" y="60" width="150" height="70" as="geometry" />
        </mxCell>
        <mxCell id="wbKljEE9paM91vU6qUUw-1" value="" style="strokeWidth=2;html=1;shape=mxgraph.flowchart.annotation_2;align=left;labelPosition=right;pointerEvents=1;" vertex="1" parent="WIyWlLk6GJQsqaUBKTNV-1">
          <mxGeometry x="214" y="45" width="50" height="100" as="geometry" />
        </mxCell>
        <mxCell id="wbKljEE9paM91vU6qUUw-2" value="&lt;font style=&quot;font-size: 15px;&quot;&gt;Http1: dispatch()&lt;/font&gt;" style="text;html=1;strokeColor=none;fillColor=none;align=left;verticalAlign=middle;whiteSpace=wrap;rounded=0;" vertex="1" parent="WIyWlLk6GJQsqaUBKTNV-1">
          <mxGeometry x="274" y="30" width="230" height="30" as="geometry" />
        </mxCell>
        <mxCell id="wbKljEE9paM91vU6qUUw-4" value="&lt;font style=&quot;font-size: 15px;&quot;&gt;Http2: onHeadersBegin()&lt;/font&gt;" style="text;html=1;strokeColor=none;fillColor=none;align=left;verticalAlign=middle;whiteSpace=wrap;rounded=0;" vertex="1" parent="WIyWlLk6GJQsqaUBKTNV-1">
          <mxGeometry x="274" y="130" width="230" height="30" as="geometry" />
        </mxCell>
        <mxCell id="wbKljEE9paM91vU6qUUw-6" value="" style="endArrow=classic;html=1;rounded=0;" edge="1" parent="WIyWlLk6GJQsqaUBKTNV-1">
          <mxGeometry width="50" height="50" relative="1" as="geometry">
            <mxPoint x="434" y="84.5" as="sourcePoint" />
            <mxPoint x="520" y="85" as="targetPoint" />
          </mxGeometry>
        </mxCell>
        <mxCell id="wbKljEE9paM91vU6qUUw-7" value="&lt;font style=&quot;font-size: 13px;&quot;&gt;record key for the stream&lt;br&gt;Http1: &amp;lt;connection id&amp;gt;&lt;br&gt;Http2: &amp;lt;plain stream id, connection id&amp;gt;&lt;/font&gt;" style="text;html=1;strokeColor=none;fillColor=none;align=left;verticalAlign=middle;whiteSpace=wrap;rounded=0;" vertex="1" parent="WIyWlLk6GJQsqaUBKTNV-1">
          <mxGeometry x="534" y="70" width="230" height="30" as="geometry" />
        </mxCell>
        <mxCell id="wbKljEE9paM91vU6qUUw-8" value="" style="endArrow=classic;html=1;rounded=0;exitX=0.5;exitY=1;exitDx=0;exitDy=0;" edge="1" parent="WIyWlLk6GJQsqaUBKTNV-1" source="wbKljEE9paM91vU6qUUw-0">
          <mxGeometry width="50" height="50" relative="1" as="geometry">
            <mxPoint x="340" y="320" as="sourcePoint" />
            <mxPoint x="140" y="220" as="targetPoint" />
          </mxGeometry>
        </mxCell>
        <mxCell id="wbKljEE9paM91vU6qUUw-18" value="" style="edgeStyle=orthogonalEdgeStyle;rounded=0;orthogonalLoop=1;jettySize=auto;html=1;" edge="1" parent="WIyWlLk6GJQsqaUBKTNV-1" source="wbKljEE9paM91vU6qUUw-9" target="wbKljEE9paM91vU6qUUw-15">
          <mxGeometry relative="1" as="geometry" />
        </mxCell>
        <mxCell id="wbKljEE9paM91vU6qUUw-9" value="&lt;font style=&quot;font-size: 16px;&quot;&gt;Request Filters Start&lt;/font&gt;" style="rounded=1;whiteSpace=wrap;html=1;absoluteArcSize=1;arcSize=14;strokeWidth=2;" vertex="1" parent="WIyWlLk6GJQsqaUBKTNV-1">
          <mxGeometry x="64" y="220" width="150" height="70" as="geometry" />
        </mxCell>
        <mxCell id="wbKljEE9paM91vU6qUUw-12" value="&lt;font style=&quot;font-size: 13px;&quot;&gt;use real key stream id to replace the orginal key&lt;/font&gt;" style="text;html=1;strokeColor=none;fillColor=none;align=left;verticalAlign=middle;whiteSpace=wrap;rounded=0;" vertex="1" parent="WIyWlLk6GJQsqaUBKTNV-1">
          <mxGeometry x="534" y="240" width="216" height="30" as="geometry" />
        </mxCell>
        <mxCell id="wbKljEE9paM91vU6qUUw-13" value="" style="endArrow=classic;html=1;rounded=0;" edge="1" parent="WIyWlLk6GJQsqaUBKTNV-1">
          <mxGeometry width="50" height="50" relative="1" as="geometry">
            <mxPoint x="460" y="255" as="sourcePoint" />
            <mxPoint x="516" y="255" as="targetPoint" />
          </mxGeometry>
        </mxCell>
        <mxCell id="wbKljEE9paM91vU6qUUw-14" value="&lt;div style=&quot;background-color: rgb(255, 255, 255); line-height: 19px;&quot;&gt;&lt;font style=&quot;font-size: 15px;&quot;&gt;ActiveStream::decodeHeaders&lt;/font&gt;&lt;/div&gt;" style="text;html=1;strokeColor=none;fillColor=none;align=center;verticalAlign=middle;whiteSpace=wrap;rounded=0;" vertex="1" parent="WIyWlLk6GJQsqaUBKTNV-1">
          <mxGeometry x="250" y="240" width="190" height="30" as="geometry" />
        </mxCell>
        <mxCell id="wbKljEE9paM91vU6qUUw-20" value="" style="edgeStyle=orthogonalEdgeStyle;rounded=0;orthogonalLoop=1;jettySize=auto;html=1;" edge="1" parent="WIyWlLk6GJQsqaUBKTNV-1" source="wbKljEE9paM91vU6qUUw-15" target="wbKljEE9paM91vU6qUUw-19">
          <mxGeometry relative="1" as="geometry" />
        </mxCell>
        <mxCell id="wbKljEE9paM91vU6qUUw-15" value="&lt;font style=&quot;font-size: 16px;&quot;&gt;Process Start&lt;/font&gt;" style="rounded=1;whiteSpace=wrap;html=1;absoluteArcSize=1;arcSize=14;strokeWidth=2;" vertex="1" parent="WIyWlLk6GJQsqaUBKTNV-1">
          <mxGeometry x="64" y="380" width="150" height="70" as="geometry" />
        </mxCell>
        <mxCell id="wbKljEE9paM91vU6qUUw-16" value="&lt;div style=&quot;background-color: rgb(255, 255, 255); line-height: 19px;&quot;&gt;&lt;font style=&quot;font-size: 15px;&quot;&gt;ActiveStream::decodeHeaders&lt;/font&gt;&lt;/div&gt;" style="text;html=1;strokeColor=none;fillColor=none;align=center;verticalAlign=middle;whiteSpace=wrap;rounded=0;" vertex="1" parent="WIyWlLk6GJQsqaUBKTNV-1">
          <mxGeometry x="250" y="400" width="190" height="30" as="geometry" />
        </mxCell>
        <mxCell id="wbKljEE9paM91vU6qUUw-27" value="" style="edgeStyle=orthogonalEdgeStyle;rounded=0;orthogonalLoop=1;jettySize=auto;html=1;" edge="1" parent="WIyWlLk6GJQsqaUBKTNV-1" source="wbKljEE9paM91vU6qUUw-19" target="wbKljEE9paM91vU6qUUw-26">
          <mxGeometry relative="1" as="geometry" />
        </mxCell>
        <mxCell id="wbKljEE9paM91vU6qUUw-19" value="&lt;font style=&quot;font-size: 16px;&quot;&gt;Upstream&lt;br&gt;HTTP Parse Start&lt;br&gt;&lt;/font&gt;" style="rounded=1;whiteSpace=wrap;html=1;absoluteArcSize=1;arcSize=14;strokeWidth=2;" vertex="1" parent="WIyWlLk6GJQsqaUBKTNV-1">
          <mxGeometry x="64" y="540" width="150" height="70" as="geometry" />
        </mxCell>
        <mxCell id="wbKljEE9paM91vU6qUUw-21" value="" style="strokeWidth=2;html=1;shape=mxgraph.flowchart.annotation_2;align=left;labelPosition=right;pointerEvents=1;" vertex="1" parent="WIyWlLk6GJQsqaUBKTNV-1">
          <mxGeometry x="214" y="525" width="50" height="100" as="geometry" />
        </mxCell>
        <mxCell id="wbKljEE9paM91vU6qUUw-22" value="&lt;font style=&quot;font-size: 15px;&quot;&gt;Http1: dispatch()&lt;/font&gt;" style="text;html=1;strokeColor=none;fillColor=none;align=left;verticalAlign=middle;whiteSpace=wrap;rounded=0;" vertex="1" parent="WIyWlLk6GJQsqaUBKTNV-1">
          <mxGeometry x="266" y="509" width="230" height="30" as="geometry" />
        </mxCell>
        <mxCell id="wbKljEE9paM91vU6qUUw-23" value="&lt;font style=&quot;font-size: 15px;&quot;&gt;Http2: onHeadersBegin&lt;/font&gt;" style="text;html=1;strokeColor=none;fillColor=none;align=left;verticalAlign=middle;whiteSpace=wrap;rounded=0;" vertex="1" parent="WIyWlLk6GJQsqaUBKTNV-1">
          <mxGeometry x="266" y="610" width="230" height="30" as="geometry" />
        </mxCell>
        <mxCell id="wbKljEE9paM91vU6qUUw-24" value="" style="endArrow=classic;html=1;rounded=0;" edge="1" parent="WIyWlLk6GJQsqaUBKTNV-1">
          <mxGeometry width="50" height="50" relative="1" as="geometry">
            <mxPoint x="440" y="560" as="sourcePoint" />
            <mxPoint x="526" y="560.5" as="targetPoint" />
          </mxGeometry>
        </mxCell>
        <mxCell id="wbKljEE9paM91vU6qUUw-25" value="&lt;font style=&quot;font-size: 13px;&quot;&gt;record key for the stream&lt;br&gt;Http1: &amp;lt;connection id&amp;gt;&lt;br&gt;Http2: &amp;lt;plain stream id, connection id&amp;gt;&lt;/font&gt;" style="text;html=1;strokeColor=none;fillColor=none;align=left;verticalAlign=middle;whiteSpace=wrap;rounded=0;" vertex="1" parent="WIyWlLk6GJQsqaUBKTNV-1">
          <mxGeometry x="534" y="547" width="230" height="30" as="geometry" />
        </mxCell>
        <mxCell id="wbKljEE9paM91vU6qUUw-32" value="" style="edgeStyle=orthogonalEdgeStyle;rounded=0;orthogonalLoop=1;jettySize=auto;html=1;" edge="1" parent="WIyWlLk6GJQsqaUBKTNV-1" source="wbKljEE9paM91vU6qUUw-26" target="wbKljEE9paM91vU6qUUw-31">
          <mxGeometry relative="1" as="geometry" />
        </mxCell>
        <mxCell id="wbKljEE9paM91vU6qUUw-26" value="&lt;font style=&quot;font-size: 16px;&quot;&gt;Response Filters Start&lt;br&gt;&lt;/font&gt;" style="rounded=1;whiteSpace=wrap;html=1;absoluteArcSize=1;arcSize=14;strokeWidth=2;" vertex="1" parent="WIyWlLk6GJQsqaUBKTNV-1">
          <mxGeometry x="64" y="720" width="150" height="70" as="geometry" />
        </mxCell>
        <mxCell id="wbKljEE9paM91vU6qUUw-28" value="&lt;div style=&quot;background-color: rgb(255, 255, 255); line-height: 19px;&quot;&gt;&lt;div style=&quot;line-height: 19px;&quot;&gt;&lt;font style=&quot;font-size: 15px;&quot;&gt;UpstreamRequest::decodeHeaders&lt;/font&gt;&lt;/div&gt;&lt;/div&gt;" style="text;html=1;strokeColor=none;fillColor=none;align=center;verticalAlign=middle;whiteSpace=wrap;rounded=0;" vertex="1" parent="WIyWlLk6GJQsqaUBKTNV-1">
          <mxGeometry x="240" y="740" width="190" height="30" as="geometry" />
        </mxCell>
        <mxCell id="wbKljEE9paM91vU6qUUw-29" value="" style="endArrow=classic;html=1;rounded=0;" edge="1" parent="WIyWlLk6GJQsqaUBKTNV-1">
          <mxGeometry width="50" height="50" relative="1" as="geometry">
            <mxPoint x="460" y="755" as="sourcePoint" />
            <mxPoint x="514" y="754.5" as="targetPoint" />
          </mxGeometry>
        </mxCell>
        <mxCell id="wbKljEE9paM91vU6qUUw-30" value="&lt;span style=&quot;font-size: 13px;&quot;&gt;Find the corresponding key:&lt;br&gt;&lt;/span&gt;&lt;font style=&quot;font-size: 13px;&quot;&gt;Http1: upstream connection id&lt;br&gt;Http2: unique stream id -&amp;gt; &amp;lt;plain_id, upstream connection id&amp;gt;&lt;br&gt;&lt;br&gt;Combine altogether&lt;br&gt;&lt;/font&gt;" style="text;html=1;strokeColor=none;fillColor=none;align=left;verticalAlign=middle;whiteSpace=wrap;rounded=0;" vertex="1" parent="WIyWlLk6GJQsqaUBKTNV-1">
          <mxGeometry x="534" y="740" width="230" height="30" as="geometry" />
        </mxCell>
        <mxCell id="wbKljEE9paM91vU6qUUw-31" value="&lt;font style=&quot;font-size: 16px;&quot;&gt;Request End&lt;br&gt;&lt;/font&gt;" style="rounded=1;whiteSpace=wrap;html=1;absoluteArcSize=1;arcSize=14;strokeWidth=2;" vertex="1" parent="WIyWlLk6GJQsqaUBKTNV-1">
          <mxGeometry x="64" y="900" width="150" height="70" as="geometry" />
        </mxCell>
        <mxCell id="wbKljEE9paM91vU6qUUw-33" value="&lt;div style=&quot;color: rgb(0, 0, 0); background-color: rgb(255, 255, 255); font-weight: normal; line-height: 19px;&quot;&gt;&lt;div style=&quot;&quot;&gt;&lt;span style=&quot;color: rgb(0, 0, 0);&quot;&gt;&lt;font style=&quot;font-size: 15px;&quot;&gt;ActiveStream::onCodecEncodeComplete&lt;/font&gt;&lt;/span&gt;&lt;/div&gt;&lt;/div&gt;" style="text;whiteSpace=wrap;html=1;" vertex="1" parent="WIyWlLk6GJQsqaUBKTNV-1">
          <mxGeometry x="221" y="915" width="279" height="40" as="geometry" />
        </mxCell>
      </root>
    </mxGraphModel>
  </diagram>
</mxfile>
